<svg width="216" height="331" viewBox="0 0 216 331" fill="none" xmlns="http://www.w3.org/2000/svg">
<circle cx="36" cy="36" r="36" fill="#FF8A1B"/>
<circle cx="180" cy="36" r="36" fill="#1FD224"/>
<path fill-rule="evenodd" clip-rule="evenodd" d="M148.435 68.0682C135.99 62.8706 122.33 60 108 60C50.0101 60 3 107.01 3 165C3 167.621 3.09605 170.22 3.28482 172.793C4.79739 164.382 12.1534 158 21 158C30.9411 158 39 166.059 39 176V244.147C52.9202 256.293 70.074 264.826 89 268.285V147C89 143.997 89.7352 141.167 91.0353 138.678C92.0797 104.336 116.211 75.801 148.435 68.0682Z" fill="#FF8A1B"/>
<path fill-rule="evenodd" clip-rule="evenodd" d="M212.965 164.932C212.965 167.553 212.869 170.152 212.68 172.725C211.167 164.314 203.811 157.932 194.965 157.932C185.024 157.932 176.965 165.991 176.965 175.932V244.079C162.556 256.651 144.682 265.353 124.965 268.563V146.932C124.965 136.991 116.906 128.932 106.965 128.932C100.026 128.932 94.0045 132.858 91 138.61C92.0445 104.267 116.176 75.7328 148.4 68C186.317 83.8357 212.965 121.272 212.965 164.932Z" fill="#1FD224"/>
<path d="M33.7543 314.288C31.752 314.288 29.9417 313.945 28.3234 313.259C26.7326 312.574 25.4709 311.586 24.5383 310.297C23.6057 309.008 23.1257 307.486 23.0983 305.73H29.2697C29.352 306.91 29.7634 307.842 30.504 308.528C31.272 309.214 32.3143 309.557 33.6309 309.557C34.9749 309.557 36.0309 309.241 36.7989 308.61C37.5669 307.952 37.9509 307.102 37.9509 306.059C37.9509 305.209 37.6903 304.51 37.1691 303.961C36.648 303.413 35.9897 302.987 35.1943 302.686C34.4263 302.357 33.3566 302 31.9851 301.616C30.12 301.067 28.5977 300.533 27.4183 300.011C26.2663 299.463 25.2651 298.654 24.4149 297.584C23.592 296.487 23.1806 295.033 23.1806 293.223C23.1806 291.522 23.6057 290.041 24.456 288.779C25.3063 287.518 26.4994 286.558 28.0354 285.899C29.5714 285.214 31.3269 284.871 33.3017 284.871C36.264 284.871 38.664 285.598 40.5017 287.051C42.3669 288.478 43.3954 290.48 43.5874 293.058H37.2514C37.1966 292.071 36.7714 291.262 35.976 290.631C35.208 289.973 34.1794 289.643 32.8903 289.643C31.7657 289.643 30.8606 289.931 30.1749 290.507C29.5166 291.083 29.1874 291.92 29.1874 293.017C29.1874 293.785 29.4343 294.43 29.928 294.951C30.4491 295.445 31.08 295.856 31.8206 296.185C32.5886 296.487 33.6583 296.843 35.0297 297.255C36.8949 297.803 38.4171 298.352 39.5966 298.901C40.776 299.449 41.7909 300.272 42.6411 301.369C43.4914 302.466 43.9166 303.906 43.9166 305.689C43.9166 307.225 43.5189 308.651 42.7234 309.968C41.928 311.285 40.7623 312.341 39.2263 313.136C37.6903 313.904 35.8663 314.288 33.7543 314.288ZM58.4143 308.693L64.1743 291.207H70.3046L61.8703 314H54.876L46.4829 291.207H52.6543L58.4143 308.693ZM72.0586 302.521C72.0586 300.217 72.5112 298.174 73.4163 296.391C74.3489 294.608 75.5969 293.237 77.1603 292.277C78.7512 291.317 80.5203 290.837 82.4677 290.837C84.1683 290.837 85.6495 291.179 86.9112 291.865C88.2003 292.551 89.2289 293.415 89.9969 294.457V291.207H95.798V314H89.9969V310.667C89.2563 311.737 88.2277 312.629 86.9112 313.342C85.622 314.027 84.1272 314.37 82.4266 314.37C80.5066 314.37 78.7512 313.877 77.1603 312.889C75.5969 311.902 74.3489 310.517 73.4163 308.734C72.5112 306.923 72.0586 304.853 72.0586 302.521ZM89.9969 302.603C89.9969 301.205 89.7226 300.011 89.174 299.024C88.6255 298.009 87.8849 297.241 86.9523 296.72C86.0197 296.171 85.0186 295.897 83.9489 295.897C82.8792 295.897 81.8917 296.158 80.9866 296.679C80.0815 297.2 79.3409 297.968 78.7649 298.983C78.2163 299.97 77.942 301.15 77.942 302.521C77.942 303.893 78.2163 305.099 78.7649 306.142C79.3409 307.157 80.0815 307.938 80.9866 308.487C81.9192 309.035 82.9066 309.31 83.9489 309.31C85.0186 309.31 86.0197 309.049 86.9523 308.528C87.8849 307.979 88.6255 307.211 89.174 306.224C89.7226 305.209 89.9969 304.002 89.9969 302.603ZM123.229 291.207L109.117 324.779H102.987L107.924 313.424L98.7905 291.207H105.25L111.133 307.129L117.099 291.207H123.229ZM124.853 302.521C124.853 300.217 125.306 298.174 126.211 296.391C127.144 294.608 128.392 293.237 129.955 292.277C131.546 291.317 133.315 290.837 135.262 290.837C136.963 290.837 138.444 291.179 139.706 291.865C140.995 292.551 142.024 293.415 142.792 294.457V291.207H148.593V314H142.792V310.667C142.051 311.737 141.022 312.629 139.706 313.342C138.417 314.027 136.922 314.37 135.221 314.37C133.301 314.37 131.546 313.877 129.955 312.889C128.392 311.902 127.144 310.517 126.211 308.734C125.306 306.923 124.853 304.853 124.853 302.521ZM142.792 302.603C142.792 301.205 142.517 300.011 141.969 299.024C141.42 298.009 140.68 297.241 139.747 296.72C138.814 296.171 137.813 295.897 136.744 295.897C135.674 295.897 134.686 296.158 133.781 296.679C132.876 297.2 132.136 297.968 131.56 298.983C131.011 299.97 130.737 301.15 130.737 302.521C130.737 303.893 131.011 305.099 131.56 306.142C132.136 307.157 132.876 307.938 133.781 308.487C134.714 309.035 135.701 309.31 136.744 309.31C137.813 309.31 138.814 309.049 139.747 308.528C140.68 307.979 141.42 307.211 141.969 306.224C142.517 305.209 142.792 304.002 142.792 302.603ZM182.525 290.878C185.322 290.878 187.571 291.742 189.272 293.47C191 295.17 191.864 297.557 191.864 300.629V314H186.104V301.41C186.104 299.627 185.651 298.27 184.746 297.337C183.841 296.377 182.607 295.897 181.043 295.897C179.48 295.897 178.232 296.377 177.299 297.337C176.394 298.27 175.942 299.627 175.942 301.41V314H170.182V301.41C170.182 299.627 169.729 298.27 168.824 297.337C167.919 296.377 166.685 295.897 165.121 295.897C163.53 295.897 162.269 296.377 161.336 297.337C160.431 298.27 159.978 299.627 159.978 301.41V314H154.218V291.207H159.978V293.963C160.719 293.003 161.665 292.249 162.817 291.701C163.997 291.152 165.286 290.878 166.685 290.878C168.467 290.878 170.058 291.262 171.457 292.03C172.856 292.77 173.939 293.84 174.707 295.239C175.448 293.922 176.518 292.866 177.917 292.071C179.343 291.275 180.879 290.878 182.525 290.878Z" fill="#8C8C8C"/>
</svg>
